<?xml version="1.0" encoding="utf-8"?>
<!-- Generator: Adobe Illustrator 21.0.2, SVG Export Plug-In . SVG Version: 6.00 Build 0)  -->
<svg version="1.1" id="Layer_1" xmlns="http://www.w3.org/2000/svg" xmlns:xlink="http://www.w3.org/1999/xlink" x="0px" y="0px"
	 viewBox="0 0 494.7 682.2" style="enable-background:new 0 0 494.7 682.2;" xml:space="preserve">
<style type="text/css">
	.st0{fill:#04003F;}
	.st1{fill:#F58220;}
	.st2{fill:#FFFFFF;}
</style>
<g id="UWW_LOGO_POSITIVE">
	<path id="Wordmark" class="st0" d="M408.3,680.9l-20-45.2l0.2,13.3v29.2c-0.1,1.5-1.4,2.6-2.9,2.6c0,0,0,0,0,0h-13.2v-72.7
		c0,0,0,0,0,0c0-1.6,1.3-2.9,2.9-2.9c0,0,0,0,0.1,0h14.5l18.5,43.6l-0.2-13.3v-27.3c0,0,0,0,0-0.1c0-1.6,1.3-2.9,2.9-2.9
		c0,0,0,0,0.1,0h13.2v72.9c-0.1,1.5-1.3,2.8-2.9,2.8c0,0,0,0,0,0H408.3z M481.7,675.1C481.7,675.1,481.7,675.1,481.7,675.1l0-29.4
		h-15.6V667h-2c-10.8,0-16.3-9.4-16.3-24.5c0-14.6,4.9-23.4,14.7-23.4c4.9,0,7.7,0.5,12.5,2.2c1.4,0.3,2.9-0.4,3.4-1.8c0,0,0,0,0,0
		l2.7-10c-5.6-2.8-10.7-4.9-18.6-4.9c-18.5,0-31.1,16-31.1,39.2c0,24.5,10.6,38.4,31.4,38.4c6.1,0,10.8-1.1,16.2-3.4
		C480.3,677.8,481.7,677.3,481.7,675.1z M87.3,678C87.3,678,87.3,678,87.3,678l14.3-69.9c0-1.6-1.3-2.9-2.9-2.9h-12l-8,46l-1.8,12
		l0.1-0.6l-2-10.4l-9.7-44.1c0,0,0,0,0-0.1c-0.4-1.6-1.3-2.9-2.9-2.9h-14l5.1,19.2l-10.3,38.3L41.8,652l-5.6-43.7c0,0,0-0.1,0-0.2
		l0,0l-0.1-0.7c-0.3-1.3-1.5-2.2-2.8-2.2H19.7l12.1,75.7H49c1.5-0.1,2.5-1.4,2.9-2.9l0,0l6.1-24.5l1.8-8.4l-0.3,1.5l3,12.2l5.1,22.2
		h16.7C86,680.8,86.9,679.5,87.3,678z M223.2,625.8c0-3.2,1.6-7.1,6.5-7.1c4.4,0,6.8,0.5,10.9,1.8c1.4,0.3,2.9-0.4,3.4-1.8l3.6-9.7
		c-8.2-4.3-12.7-4.8-19.2-4.8c-8.8,0-21.4,6.8-21.4,21.2c0,23.1,26.2,22.2,26.2,32.7c0,3.1-1.8,8.6-8,8.6c-4.7,0-7.9-0.7-12.6-2.6
		c0,0,0,0-0.1,0c-1.5-0.5-3.2,0.2-3.7,1.7c0,0.1,0,0.1-0.1,0.1l-3.5,9.5c5.4,3.9,11,6.3,20.1,6.3c10.9,0,24.3-7.2,24.3-23.8
		C249.8,636.8,223.2,634.4,223.2,625.8z M360.3,680.9c1.6,0,2.9-1.3,2.9-2.9v-72.8H350c0,0,0,0-0.1,0c-1.5,0-2.8,1.2-2.9,2.6v73
		L360.3,680.9C360.3,680.9,360.3,680.9,360.3,680.9z M342.3,666.5h-23.9v-61.3h-13.2c0,0,0,0-0.1,0c-1.6,0-2.9,1.3-2.9,2.9v72.8H337
		L342.3,666.5z M254,605.2l-5.3,14.2h15.8v61.4h13.3c0,0,0,0,0,0c1.6,0,2.9-1.3,2.9-2.9c0-0.1,0-0.1,0-0.1v-58.4h13.8
		c0,0,0.1,0,0.1,0c1.6,0,2.9-1.3,2.9-2.9c0,0,0,0,0-0.1v-11.3H254z M156.7,682.2c-10.9-1-18.8-8.8-23.6-17.6l-5.4-9.8h-5.2v23.2
		c0,0,0,0,0,0.1c0,1.6-1.3,2.9-2.9,2.9c0,0,0,0,0,0h-13.3v-72.8c0-1.6,1.3-2.9,2.9-2.9c0,0,0.1,0,0.1,0h19.5
		c12.9,0,22.5,8.1,22.5,25.3c0,8-3.9,15.2-9.1,19.2l6,8c2.8,3.7,6.3,7.6,13.3,11.8L156.7,682.2z M134.5,630.9
		c0-6.5-1.6-11.3-7.4-11.3h-4.6V642h2.8C132.2,642,134.5,636.9,134.5,630.9z M204.6,666.7v-0.1h-24.1v-17.1H195l4.9-13.3h-19.4
		v-16.8h18.1l5.3-14.2h-36.5c0,0,0,0-0.1,0c-1.5,0-2.7,1.1-2.9,2.6v73h35L204.6,666.7z M145.2,587.4c0.9,0,1.7-0.7,1.8-1.6V541h-4.8
		c-1,0-1.8,0.8-1.8,1.8v44.6L145.2,587.4C145.2,587.4,145.2,587.4,145.2,587.4z M131.7,587.4c1,0,1.8-0.8,1.8-1.7V541h-4.7
		c0,0,0,0,0,0c-1,0-1.8,0.8-1.8,1.8c0,0,0,0,0,0v24.7l0.4,7.9h-0.3l-15-34.4h-5.6c0,0,0,0,0,0c-1,0-1.7,0.8-1.8,1.7v44.7h4.8
		c0,0,0,0,0,0c1,0,1.8-0.8,1.8-1.8v-24.8l-0.5-7.6h0.3l15.2,34.2L131.7,587.4C131.7,587.4,131.7,587.4,131.7,587.4z M94,541
		c-1,0-1.8,0.8-1.8,1.8v26.7c0,9.7-3.6,12.9-8.1,12.9c-4.4,0-8-2.8-8-11.3v-30h-4.9c-1,0-1.7,0.8-1.7,1.8l0,0v28
		c0,14,7.5,17.4,14.6,17.4c6.8,0,14.4-3.8,14.4-19V541H94z M167,587.4c0.9-0.1,1.6-0.8,1.6-1.8v-38.7h9.2c1,0,1.7-0.8,1.7-1.8
		c0,0,0,0,0,0V541h-26.3l-2.2,5.9v0h11v40.5H167z M205.8,581.5L205.8,581.5l-15.3,0v-14.7h11.3l2-5.5h-13.3v-14.6h12.1l2.1-5.8
		h-20.8v46.4h19.8L205.8,581.5z M240.3,564c0,16.1-7.3,23.3-19.1,23.3h-8.9c-1,0-1.8-0.8-1.8-1.8v-42.8c0-1,0.8-1.8,1.8-1.8h8.6
		C232.2,541,240.3,548.7,240.3,564z M233.7,564.7c0-11.9-4.9-17.9-12.9-17.9H217v34.7h4.7C229.4,581.5,233.7,575.6,233.7,564.7z
		 M339.3,564.2c0-13.6-5.4-23.9-17.1-23.9c-11,0-18,8.9-18,23.7c0,14.7,5.9,24.1,17.1,24.1C332.8,588.2,339.3,578.9,339.3,564.2z
		 M332.6,564.2c0,10.5-3.2,18.2-10.9,18.2c-7.1,0-10.9-8-10.9-18.4c0-10.3,3.5-18,10.8-18C328.6,546,332.6,553.3,332.6,564.2z
		 M431.9,564c0,16.1-7.3,23.3-19.1,23.3h-8.9c-1,0-1.8-0.8-1.8-1.8v-42.8c0-1,0.8-1.8,1.8-1.8h8.6C423.9,541,431.9,548.7,431.9,564z
		 M425.4,564.7c0-11.9-4.9-17.9-12.9-17.9h-3.8v34.7h4.7C421,581.5,425.4,575.6,425.4,564.7z M384.3,581.4V541h-4.8
		c-1,0-1.8,0.8-1.8,1.8v44.6h18.7l2.2-6H384.3z M374.1,582.9l-1.9,5.2c-3.7-0.5-7.9-2.9-10.6-8.3l-5.1-10.2c-0.8,0.2-2,0.2-3.2,0.2
		h-2.5v15.7c0,0,0,0,0,0c0,1-0.8,1.8-1.8,1.8c0,0,0,0,0,0h-4.8v-44.6c0-1,0.8-1.8,1.8-1.8h10.2c7.1,0,12.1,4.6,12.1,14.4
		c0,5.1-2,9.8-6,12.2l4.7,8.5C368.6,578.7,370.5,581,374.1,582.9z M361.6,555.7c0-5.9-2-8.9-6.3-8.9h-4.5v17.4h3.3
		C358.9,564.3,361.6,561.5,361.6,555.7z M301.5,541h-4.2l-7.3,32.9l-0.9,5.1h-0.3l-1.2-4.8l-7.5-31.7c0,0,0,0,0,0
		c-0.2-0.8-0.9-1.4-1.8-1.4c0,0,0,0,0,0h-5.2l3,11.7l-6.1,21.3l-1.4,5h-0.3l-0.9-5l-5.5-31.6l0,0c-0.2-0.8-0.9-1.4-1.8-1.4
		c0,0,0,0,0,0h-5.1l8.9,46.4h6.8c0,0,0,0,0,0c0.8,0,1.5-0.6,1.7-1.3l5.3-19.3l1.1-3.9h0.2l0.9,4l4.9,20.5h6.6c0,0,0,0,0,0
		c0.8,0,1.5-0.5,1.7-1.2l10-43.3c0,0,0,0,0,0C303.6,541.8,302.5,541,301.5,541z"/>
	<g id="SYMBOL_1_">
		<circle id="Light_Blue_circle_2_" class="st1" cx="247.3" cy="247.3" r="247.3"/>
		<circle id="Dark_Blue_Circle_3_" class="st0" cx="247.3" cy="247.3" r="191.3"/>
		<path id="Blue_Sun_Fans_3_" class="st1" d="M240,207.9c-7.5-19.3-37.7-40.8-58.1-45.1c-43.4-9-39-45.4-39-45.4
			c10.1,22.8,34.1,33.7,36.5,26.3c0.6-1.9-8.9-11.3-9.8-17.3c-0.9-6,6.3-11.5,11.3-9.6c13.7,5.1,4,25.4,20.7,33.9
			C223.8,160.9,243.4,186.4,240,207.9z M169.7,394.7c25.7-31.8,39.1-33.3,41.2-31.7c5.8,4.4,0.8,11.6-0.5,14.2
			c-3.3,6.8-2,15.5,7,16.7c6.6,0.9,11.4-7.7,9.5-16.1c-3.3-14.6,11.1-15.1,10.1-7.8c-2.7,19.7,10,35.9,21.3,43.6
			c-6.8-15.5-9.1-42.1,3.3-46.6c11.8-4.3,3.3,18.6,7.7,24.2c1.9,2.5,7.9,4.2,12,1.7c8.9-5.6-5.9-30,0.8-31.6
			c12.1-2.4,4.1,22.3,32.7,38.4c-5.4-16.4-13.9-41.5-6.4-46.6c5.9-2.8,7.1,8.9,13.2,14c9.6,7.9,23.1-5.3,14.8-10.8
			c-9.2-6-16.1-13.9-14.4-17.7c5-11,23.1,0.4,39.2,30.3c6.3-27.1-11.7-44.9-31.1-53.9c-13.3-6.2-26.5-22.3-29.3-25.2
			c-11.1-11.6-15.6-6.7-35.7-19c-4-4.3-7.2-24.8-1.4-32.4c11.5,13.2,53.9,16.8,51.6,11c-5-12.8,16.5-14.2,23.3-5
			c6.9,9.4,2.3,20.3-14.5,18.6c-10.8-1.1-10.9,4.9-10.6,7.6c1.1,12.4,16.7,24.5,26.7,29.8c21,11,48.2,7.8,63.3,4.3
			c-10.5-3.6-20.4-6.3-30.2-12.4c-18.6-11.7-15.8-17.3-13.2-21.1c2.6-3.8,11.7-4.1,22.4-0.1c19.1,7.2,25.6-28.1,4.9-21.1
			c-9.2,3.1-21.7,4.8-23-5.3c0.3-18.2,36.3-9.6,42.6-40.9c-15.3,14.4-43.4,16.3-49.6,8.5c-4.4-5.6,3.2-10.1,12.8-9.8
			c19.6,0.5,15.4-27.1-2.3-20.6c-11.2,4.1-16,15.6-19.9,13.8c-6.9-3.2-3.8-34.4,26.4-55.5c-31.6-5-41.1,32.9-50.2,25.1
			c-8.2-7.1-2.5-22.1,5.5-29.4c10.5-9.5-7.1-27.4-18-9.6c-6.4,10.5,0.3,25.4-9.1,24.9c-12.4-0.8,11.2-47.7-21.1-66.5
			c9.3,20.7,6.4,56.1-11.1,50.6c-11.5-3.6-4.9-12.2-2.3-22.7c4.3-17.2-20.1-16.5-19-3.5c1.1,13.1,2.9,23.1-4.1,23.6
			c-10.6,0.7-17.9-25.9-2.2-51c-29.5,11.3-27.7,51.1-15.4,60.8c17.9,14.1,34.1,41.6,30.4,68c-8.5,12.6-28.2,18.8-28.2,18.8
			c-0.6-9.3-17.9-46.3-64.4-50c-39-3.1-47-36.2-47-36.2c-1.9,9.2-5.4,29.5,23.4,41.4c5.8,2.4-2.3,10.3-11.4,2.5
			c-16.9-14.4-29.3,6.5-14.4,12.3c5.1,2,23.8,6.6,30,15.2c14.6,20.1,32.2,35.8,76.5,22c19.2-6,35.1-17,35.1-17s14.3-18.4,26.4-7.1
			c3.7,3.5,4.7,12.8-2.1,19.3c-6.9,6.6-15.6,4.4-18.2-0.1c-0.7-1.1-4.8,0.4-7.2,8.7c-2.4,8.3-5.8,28.4,17.3,47
			c3.2,2.6-29.4-1.9-35.2-33c-5.7,4.2-17.9,7.8-26.3,8.8c7.6,18,9.6,56.7-14.1,78.8C178.1,360.1,174.1,379.5,169.7,394.7z
			 M136,286.5c0.2,8.7-33.5,13.1-35.4,39.5c-0.2,2.4,19.3-16.7,41.9-16.3c6.8,0.1,8.9,7.9,6.9,11.5c-3.1,5.5-20,1.6-23.6,10.8
			c-3,7.4,6.9,13.2,13.9,11.9c9.5-1.7,8.7-8.4,34.2-19c19.4-8.1,27.4-35.4,20.8-60.8c0,0-35-1.6-54.1-22c-19.2-20.4-57.8-17-57.8-17
			c23.5,11.8,44.5,25,46.4,31.2c3.2,10.6-8.4,3.9-20.4,6.3c-14.9,3-11,20.2-0.9,21.1C117.1,284.6,135.6,270.4,136,286.5z"/>
		<path id="FIGURES_1_" class="st2" d="M257.6,210.4c-8.5,12.6-28.2,18.8-28.2,18.8c-0.6-9.3-17.9-46.3-64.4-50l0,0
			c5-6.1,10.7-11.5,16.9-16.4c20.5,4.3,50.6,25.8,58.1,45.1c3.4-21.5-16.2-47-38.5-57.2l0,0c8-3.8,16.6-6.7,25.6-8.4
			C245.1,156.4,261.3,184,257.6,210.4z M173.9,325c7.1,6.7,15,12.4,23.7,17c23.7-22.1,21.7-60.8,14.1-78.8c8.5-1,20.6-4.6,26.3-8.8
			c5.8,31.1,38.5,35.6,35.2,33c-23.1-18.6-19.7-38.7-17.3-47c2.4-8.3,6.6-9.9,7.2-8.7c2.6,4.6,11.4,6.7,18.2,0.1
			c6.9-6.6,5.9-15.9,2.1-19.3c-12.1-11.3-26.4,7.1-26.4,7.1s-16,11.1-35.1,17c-44.3,13.8-61.9-2-76.5-22l0,0
			c-2.8,8.8-4.6,18.1-5,27.7l0,0c19.1,20.4,54.1,22,54.1,22C201.3,289.6,193.3,316.9,173.9,325C173.9,325,173.9,325,173.9,325z
			 M313.4,270.6c-0.2-2.7-0.2-8.7,10.6-7.6c16.9,1.7,21.5-9.2,14.5-18.6c-6.8-9.2-28.3-7.9-23.3,5c2.3,5.8-40.2,2.2-51.6-11
			c-5.8,7.6-2.6,28.1,1.4,32.4c20.1,12.3,24.5,7.5,35.7,19c2.8,3,16.1,19,29.3,25.2c3.7-4.6,7.1-9.5,10.1-14.6
			C330.1,295.1,314.5,283.1,313.4,270.6z"/>
		<path id="TM" class="st2" d="M380.8,331v10.8H379V331h-2.9v-1.6h7.6v1.6H380.8z M392.9,341.9v-7.1l0.1-2.2H393l-2.3,9.2h-1.9
			l-2.2-9.2h-0.1l0.1,2.3v6.9h-1.8v-12.4h2.4l2.5,10.4h0l2.7-10.4h2.3v12.4H392.9z"/>
	</g>
</g>
</svg>
